<svg xmlns="http://www.w3.org/2000/svg" xmlns:xlink="http://www.w3.org/1999/xlink" width="1920" zoomAndPan="magnify" viewBox="0 0 1440 809.999993" height="1080" preserveAspectRatio="xMidYMid meet" version="1.0"><defs><clipPath id="030ecef623"><path d="M 466.136719 151.136719 L 973.886719 151.136719 L 973.886719 658.886719 L 466.136719 658.886719 Z M 466.136719 151.136719 " clip-rule="nonzero"/></clipPath></defs><g clip-path="url(#030ecef623)"><path fill="#ff7221" d="M 973.863281 405 C 973.863281 409.152344 973.761719 413.304688 973.558594 417.457031 C 973.351562 421.605469 973.046875 425.746094 972.640625 429.882812 C 972.234375 434.015625 971.726562 438.140625 971.113281 442.25 C 970.503906 446.359375 969.796875 450.449219 968.984375 454.527344 C 968.175781 458.601562 967.265625 462.652344 966.253906 466.683594 C 965.246094 470.714844 964.136719 474.714844 962.929688 478.691406 C 961.726562 482.667969 960.421875 486.613281 959.023438 490.523438 C 957.625 494.433594 956.128906 498.308594 954.539062 502.148438 C 952.949219 505.988281 951.265625 509.785156 949.488281 513.539062 C 947.710938 517.296875 945.84375 521.003906 943.886719 524.667969 C 941.929688 528.332031 939.882812 531.949219 937.746094 535.511719 C 935.609375 539.074219 933.386719 542.582031 931.078125 546.039062 C 928.769531 549.492188 926.378906 552.886719 923.90625 556.226562 C 921.429688 559.5625 918.875 562.835938 916.238281 566.046875 C 913.601562 569.261719 910.890625 572.40625 908.101562 575.484375 C 905.308594 578.5625 902.445312 581.570312 899.507812 584.507812 C 896.570312 587.445312 893.5625 590.308594 890.484375 593.101562 C 887.40625 595.890625 884.261719 598.601562 881.046875 601.238281 C 877.835938 603.875 874.5625 606.429688 871.226562 608.90625 C 867.886719 611.378906 864.492188 613.769531 861.039062 616.078125 C 857.582031 618.386719 854.074219 620.609375 850.511719 622.746094 C 846.949219 624.882812 843.332031 626.929688 839.667969 628.886719 C 836.003906 630.84375 832.296875 632.710938 828.539062 634.488281 C 824.785156 636.265625 820.988281 637.949219 817.148438 639.539062 C 813.308594 641.128906 809.433594 642.625 805.523438 644.023438 C 801.613281 645.421875 797.667969 646.726562 793.691406 647.929688 C 789.714844 649.136719 785.714844 650.246094 781.683594 651.253906 C 777.652344 652.265625 773.601562 653.175781 769.527344 653.984375 C 765.449219 654.796875 761.359375 655.503906 757.25 656.113281 C 753.140625 656.726562 749.015625 657.234375 744.882812 657.640625 C 740.746094 658.046875 736.605469 658.351562 732.457031 658.558594 C 728.304688 658.761719 724.152344 658.863281 720 658.863281 C 715.84375 658.863281 711.691406 658.761719 707.542969 658.558594 C 703.394531 658.351562 699.25 658.046875 695.117188 657.640625 C 690.980469 657.234375 686.859375 656.726562 682.75 656.113281 C 678.640625 655.503906 674.546875 654.796875 670.472656 653.984375 C 666.398438 653.175781 662.347656 652.265625 658.316406 651.253906 C 654.285156 650.246094 650.28125 649.136719 646.308594 647.929688 C 642.332031 646.726562 638.386719 645.421875 634.476562 644.023438 C 630.5625 642.625 626.6875 641.128906 622.851562 639.539062 C 619.011719 637.949219 615.214844 636.265625 611.457031 634.488281 C 607.703125 632.710938 603.992188 630.84375 600.328125 628.886719 C 596.664062 626.929688 593.050781 624.882812 589.488281 622.746094 C 585.925781 620.609375 582.414062 618.386719 578.960938 616.078125 C 575.507812 613.769531 572.109375 611.378906 568.773438 608.90625 C 565.4375 606.429688 562.160156 603.875 558.949219 601.238281 C 555.738281 598.601562 552.59375 595.890625 549.515625 593.101562 C 546.4375 590.308594 543.429688 587.445312 540.492188 584.507812 C 537.554688 581.570312 534.6875 578.5625 531.898438 575.484375 C 529.109375 572.40625 526.394531 569.261719 523.761719 566.046875 C 521.125 562.835938 518.570312 559.5625 516.09375 556.226562 C 513.621094 552.886719 511.226562 549.492188 508.917969 546.039062 C 506.613281 542.582031 504.390625 539.074219 502.253906 535.511719 C 500.117188 531.949219 498.070312 528.332031 496.113281 524.667969 C 494.152344 521.003906 492.285156 517.296875 490.511719 513.539062 C 488.734375 509.785156 487.050781 505.988281 485.460938 502.148438 C 483.871094 498.308594 482.375 494.433594 480.976562 490.523438 C 479.578125 486.613281 478.273438 482.667969 477.066406 478.691406 C 475.863281 474.714844 474.753906 470.714844 473.746094 466.683594 C 472.734375 462.652344 471.824219 458.601562 471.015625 454.527344 C 470.203125 450.449219 469.492188 446.359375 468.882812 442.25 C 468.273438 438.140625 467.765625 434.015625 467.359375 429.882812 C 466.953125 425.746094 466.644531 421.605469 466.441406 417.457031 C 466.238281 413.304688 466.136719 409.152344 466.136719 405 C 466.136719 400.84375 466.238281 396.691406 466.441406 392.542969 C 466.644531 388.394531 466.953125 384.25 467.359375 380.117188 C 467.765625 375.980469 468.273438 371.859375 468.882812 367.75 C 469.492188 363.640625 470.203125 359.546875 471.015625 355.472656 C 471.824219 351.398438 472.734375 347.347656 473.746094 343.316406 C 474.753906 339.285156 475.863281 335.28125 477.066406 331.308594 C 478.273438 327.332031 479.578125 323.386719 480.976562 319.476562 C 482.375 315.5625 483.871094 311.6875 485.460938 307.851562 C 487.050781 304.011719 488.734375 300.214844 490.511719 296.460938 C 492.285156 292.703125 494.152344 288.992188 496.113281 285.328125 C 498.070312 281.664062 500.117188 278.050781 502.253906 274.488281 C 504.390625 270.925781 506.613281 267.414062 508.917969 263.960938 C 511.226562 260.507812 513.621094 257.109375 516.09375 253.773438 C 518.570312 250.4375 521.125 247.160156 523.761719 243.949219 C 526.394531 240.738281 529.109375 237.59375 531.898438 234.515625 C 534.6875 231.4375 537.554688 228.429688 540.492188 225.492188 C 543.429688 222.554688 546.4375 219.6875 549.515625 216.898438 C 552.59375 214.109375 555.738281 211.394531 558.949219 208.761719 C 562.160156 206.125 565.4375 203.570312 568.773438 201.09375 C 572.109375 198.621094 575.507812 196.226562 578.960938 193.921875 C 582.414062 191.613281 585.925781 189.390625 589.488281 187.253906 C 593.050781 185.117188 596.664062 183.070312 600.328125 181.113281 C 603.992188 179.152344 607.703125 177.285156 611.457031 175.511719 C 615.214844 173.734375 619.011719 172.050781 622.851562 170.460938 C 626.6875 168.871094 630.5625 167.375 634.476562 165.976562 C 638.386719 164.578125 642.332031 163.273438 646.308594 162.066406 C 650.28125 160.863281 654.285156 159.753906 658.316406 158.746094 C 662.347656 157.734375 666.398438 156.824219 670.472656 156.015625 C 674.546875 155.203125 678.640625 154.492188 682.75 153.882812 C 686.859375 153.273438 690.980469 152.765625 695.117188 152.359375 C 699.25 151.953125 703.394531 151.644531 707.542969 151.441406 C 711.691406 151.238281 715.84375 151.136719 720 151.136719 C 724.152344 151.136719 728.304688 151.238281 732.457031 151.441406 C 736.605469 151.644531 740.746094 151.953125 744.882812 152.359375 C 749.015625 152.765625 753.140625 153.273438 757.25 153.882812 C 761.359375 154.492188 765.449219 155.203125 769.527344 156.015625 C 773.601562 156.824219 777.652344 157.734375 781.683594 158.746094 C 785.714844 159.753906 789.714844 160.863281 793.691406 162.066406 C 797.667969 163.273438 801.613281 164.578125 805.523438 165.976562 C 809.433594 167.375 813.308594 168.871094 817.148438 170.460938 C 820.988281 172.050781 824.785156 173.734375 828.539062 175.511719 C 832.296875 177.285156 836.003906 179.152344 839.667969 181.113281 C 843.332031 183.070312 846.949219 185.117188 850.511719 187.253906 C 854.074219 189.390625 857.582031 191.613281 861.039062 193.921875 C 864.492188 196.226562 867.886719 198.621094 871.226562 201.09375 C 874.5625 203.570312 877.835938 206.125 881.046875 208.761719 C 884.261719 211.394531 887.40625 214.109375 890.484375 216.898438 C 893.5625 219.6875 896.570312 222.554688 899.507812 225.492188 C 902.445312 228.429688 905.308594 231.4375 908.101562 234.515625 C 910.890625 237.59375 913.601562 240.738281 916.238281 243.949219 C 918.875 247.160156 921.429688 250.4375 923.90625 253.773438 C 926.378906 257.109375 928.769531 260.507812 931.078125 263.960938 C 933.386719 267.414062 935.609375 270.925781 937.746094 274.488281 C 939.882812 278.050781 941.929688 281.664062 943.886719 285.328125 C 945.84375 288.992188 947.710938 292.703125 949.488281 296.460938 C 951.265625 300.214844 952.949219 304.011719 954.539062 307.851562 C 956.128906 311.6875 957.625 315.5625 959.023438 319.476562 C 960.421875 323.386719 961.726562 327.332031 962.929688 331.308594 C 964.136719 335.28125 965.246094 339.285156 966.253906 343.316406 C 967.265625 347.347656 968.175781 351.398438 968.984375 355.472656 C 969.796875 359.546875 970.503906 363.640625 971.113281 367.75 C 971.726562 371.859375 972.234375 375.980469 972.640625 380.117188 C 973.046875 384.25 973.351562 388.394531 973.558594 392.542969 C 973.761719 396.691406 973.863281 400.84375 973.863281 405 Z M 973.863281 405 " fill-opacity="1" fill-rule="nonzero"/></g><path fill="#ff7221" d="M 793.617188 648.007812 C 874.613281 623.5 938.5 559.617188 963.007812 478.617188 L 869.914062 385.519531 C 864.597656 379.671875 856.9375 375.988281 848.460938 375.988281 C 665.800781 375.988281 774.199219 375.988281 591.539062 375.988281 C 575.582031 375.988281 562.527344 389.042969 562.527344 405 C 562.527344 413.476562 566.214844 421.132812 572.058594 426.449219 Z M 793.617188 648.007812 " fill-opacity="1" fill-rule="evenodd"/><path fill="#ffffff" d="M 591.539062 375.988281 C 774.199219 375.988281 665.796875 375.988281 848.460938 375.988281 C 864.414062 375.988281 877.472656 389.042969 877.472656 405 C 877.472656 420.953125 864.417969 434.007812 848.460938 434.007812 C 665.796875 434.007812 774.199219 434.007812 591.539062 434.007812 C 575.582031 434.007812 562.527344 420.957031 562.527344 405 C 562.527344 389.042969 575.582031 375.988281 591.539062 375.988281 Z M 591.539062 375.988281 " fill-opacity="1" fill-rule="evenodd"/></svg>